# xmcd CD database file
#
# Track frame offsets:
#	150
#	30811
#	43033
#	56127
#	69017
#	79897
#	89615
#	101534
#	114812
#	131376
#	141993
#	156735
#	165835
#	185007
#	198183
#	222521
#	236962
#	257106
#	266737
#	279832
#
# Disc length: 4000 seconds
#
# Revision: 2
# Processed by: cddbd v1.5.2PL0 Copyright (c) Steve Scherf et al.
# Submitted via: CDex 1.51
#
DISCID=1c0f9e14
DTITLE=Sadies - In Concert - Volume 1 [CD2]
DYEAR=2006
DGENRE=Rock
TTITLE0=Back Off
TTITLE1=Justine Alright
TTITLE2=Talking Down
TTITLE3=American Pageant
TTITLE4=Strange Birds
TTITLE5=Home
TTITLE6=Hold On, Hold On
TTITLE7=Evangeline
TTITLE8=Tailspin
TTITLE9=Good Flying Day
TTITLE10=Lucifer Sam
TTITLE11=Another Day
TTITLE12=All Passed Away
TTITLE13=The Story's Often Told
TTITLE14=You're Everywhere
TTITLE15=Within A Stone
TTITLE16=Food, Water, Etc.
TTITLE17=Jason Fleming
TTITLE18=Her Love Made Me
TTITLE19=Memphis, Egypt
EXTD=YEAR: 2006
EXTT0=
EXTT1=
EXTT2=
EXTT3=
EXTT4=
EXTT5=
EXTT6=
EXTT7=
EXTT8=
EXTT9=
EXTT10=
EXTT11=
EXTT12=
EXTT13=
EXTT14=
EXTT15=
EXTT16=
EXTT17=
EXTT18=
EXTT19=
PLAYORDER=
